<?xml version="1.0" encoding="iso-8859-1"?>
<!-- Generator: Adobe Illustrator 19.0.0, SVG Export Plug-In . SVG Version: 6.00 Build 0)  -->
<svg xmlns="http://www.w3.org/2000/svg" xmlns:xlink="http://www.w3.org/1999/xlink" version="1.1" id="Layer_1" x="0px" y="0px" viewBox="0 0 395.521 395.521" style="enable-background:new 0 0 395.521 395.521;" xml:space="preserve" width="512" height="512">
<g>
	<path style="fill:#5C6670;" d="M363.021,32.172c13.75,0,25,11.25,25,25v281.177c0,13.75-11.25,25-25,25H32.5   c-13.75,0-25-11.25-25-25V57.172c0-13.75,11.25-25,25-25H363.021z"/>
	<rect x="142.792" y="318.38" style="fill:#00B3E3;" width="109.939" height="44.969"/>
	<rect x="47.5" y="72.172" style="fill:#FFFFFF;" width="300.521" height="251.177"/>
	<g>
		<path style="fill:#FF6361;" d="M113.971,304.26c-18.472,0-33.5-15.028-33.5-33.5s15.028-33.5,33.5-33.5    c18.472,0,33.5,15.028,33.5,33.5S132.443,304.26,113.971,304.26z M113.971,252.26c-10.201,0-18.5,8.299-18.5,18.5    c0,10.201,8.299,18.5,18.5,18.5c10.201,0,18.5-8.299,18.5-18.5C132.471,260.559,124.172,252.26,113.971,252.26z"/>
		<path style="fill:#FF6361;" d="M286.927,165.686c-18.472,0-33.5-15.028-33.5-33.5s15.028-33.5,33.5-33.5s33.5,15.028,33.5,33.5    S305.399,165.686,286.927,165.686z M286.927,113.686c-10.201,0-18.5,8.299-18.5,18.5s8.299,18.5,18.5,18.5    c10.201,0,18.5-8.299,18.5-18.5S297.128,113.686,286.927,113.686z"/>
		<g>
			<path style="fill:#0071CE;" d="M105.428,158.26c-4.142,0-7.5-3.358-7.5-7.5v-52c0-4.142,3.358-7.5,7.5-7.5     c4.142,0,7.5,3.358,7.5,7.5v52C112.928,154.902,109.57,158.26,105.428,158.26z"/>
			<path style="fill:#0071CE;" d="M131.428,132.26h-52c-4.142,0-7.5-3.358-7.5-7.5c0-4.142,3.358-7.5,7.5-7.5h52     c4.142,0,7.5,3.358,7.5,7.5C138.928,128.902,135.57,132.26,131.428,132.26z"/>
		</g>
		<g>
			<path style="fill:#0071CE;" d="M273.921,286.667c-4.142,0-7.5-3.358-7.5-7.5v-52c0-4.142,3.358-7.5,7.5-7.5     c4.142,0,7.5,3.358,7.5,7.5v52C281.421,283.309,278.063,286.667,273.921,286.667z"/>
			<path style="fill:#0071CE;" d="M299.921,260.667h-52c-4.142,0-7.5-3.358-7.5-7.5s3.358-7.5,7.5-7.5h52c4.142,0,7.5,3.358,7.5,7.5     S304.063,260.667,299.921,260.667z"/>
		</g>
		<path style="fill:#454F58;" d="M141.834,237.761c-1.113,0.001-2.242-0.249-3.308-0.773c-3.716-1.831-5.245-6.326-3.414-10.042    c33.981-68.986,100.058-89.217,102.855-90.044c3.972-1.176,8.144,1.092,9.32,5.064c1.174,3.97-1.09,8.14-5.058,9.318    c-0.868,0.263-62.73,19.498-93.661,82.291C147.263,236.224,144.601,237.761,141.834,237.761z"/>
		<path d="M363.021,24.672H32.5c-17.92,0-32.5,14.58-32.5,32.5v281.177c0,17.92,14.58,32.5,32.5,32.5h330.521    c17.92,0,32.5-14.58,32.5-32.5V57.172C395.521,39.251,380.941,24.672,363.021,24.672z M245.231,355.849h-94.939v-25h94.939    V355.849z M55,315.849V79.672h285.521v236.177H55z M380.521,338.349c0,9.649-7.851,17.5-17.5,17.5H260.232v-25h87.789    c4.142,0,7.5-3.358,7.5-7.5V72.172c0-4.142-3.358-7.5-7.5-7.5H47.5c-4.142,0-7.5,3.358-7.5,7.5v251.177c0,4.142,3.358,7.5,7.5,7.5    h87.792v25H32.5c-9.649,0-17.5-7.851-17.5-17.5V57.172c0-9.649,7.851-17.5,17.5-17.5h330.521c9.649,0,17.5,7.851,17.5,17.5    V338.349z"/>
	</g>
</g>















</svg>
